<?xml version="1.0" standalone="no"?>
<!DOCTYPE svg PUBLIC "-//W3C//DTD SVG 20010904//EN"
 "http://www.w3.org/TR/2001/REC-SVG-20010904/DTD/svg10.dtd">
<svg version="1.0" xmlns="http://www.w3.org/2000/svg"
 width="512.000000pt" height="512.000000pt" viewBox="0 0 512.000000 512.000000"
 preserveAspectRatio="xMidYMid meet">
<metadata>
Created by potrace 1.11, written by Peter Selinger 2001-2013
</metadata>
<g transform="translate(0.000000,512.000000) scale(0.100000,-0.100000)"
fill="#000000" stroke="none">
<path d="M1103 3843 c-50 -122 -248 -589 -306 -723 -25 -58 -163 -384 -307
-725 -144 -341 -267 -633 -275 -650 -37 -84 -205 -485 -207 -497 -4 -17 216
-22 230 -5 6 7 53 113 105 237 52 124 198 470 325 770 126 300 259 615 294
700 153 367 273 648 277 644 2 -2 14 -27 26 -56 23 -55 165 -392 405 -958 78
-184 171 -405 207 -490 36 -85 71 -168 79 -185 7 -16 45 -106 84 -200 39 -93
74 -173 78 -177 4 -4 57 108 116 250 60 141 174 410 253 597 80 187 166 394
193 460 26 66 73 178 104 249 31 72 56 136 56 143 0 7 5 13 10 13 6 0 10 6 10
13 0 12 81 206 128 310 l17 37 104 -247 c57 -137 112 -266 121 -288 10 -22 75
-175 145 -340 201 -477 564 -1333 599 -1415 l32 -75 552 0 c304 0 552 4 552 8
0 5 -13 39 -29 75 -16 37 -73 171 -126 297 -53 127 -116 275 -140 330 -23 55
-65 154 -93 220 -153 363 -195 463 -207 490 -7 17 -57 134 -110 260 -54 127
-147 347 -207 490 -61 143 -131 308 -155 368 l-46 107 -556 0 -556 0 -144
-343 c-80 -188 -153 -362 -164 -386 l-19 -44 -54 129 c-30 71 -58 138 -64 149
-5 11 -41 97 -80 190 -40 94 -78 184 -85 200 -7 17 -20 47 -29 68 l-15 37
-556 0 -556 0 -16 -37z"/>
<path d="M996 2472 c-15 -37 -76 -182 -136 -322 -60 -140 -159 -374 -220 -520
-127 -301 -138 -326 -153 -357 -6 -13 -7 -26 -3 -30 12 -12 1097 -10 1092 2
-2 5 -60 143 -129 305 -68 162 -173 410 -231 550 -112 267 -129 306 -152 354
-8 16 -14 34 -14 40 0 6 -7 19 -14 28 -11 15 -16 10 -40 -50z"/>
<path d="M2782 2520 c-15 -38 -62 -151 -77 -185 -7 -16 -64 -149 -125 -295
-61 -146 -117 -278 -125 -295 -36 -80 -204 -483 -207 -495 -3 -12 76 -14 540
-15 299 0 547 2 551 5 4 3 -41 120 -101 260 -60 140 -142 336 -184 435 -42 99
-82 194 -90 211 -7 17 -45 106 -83 196 -37 91 -73 174 -79 184 -10 18 -11 18
-20 -6z"/>
</g>
</svg>
