<?xml version="1.0" encoding="UTF-8"?>
<svg id="SVGDoc" width="700" height="566" xmlns="http://www.w3.org/2000/svg" version="1.1" xmlns:xlink="http://www.w3.org/1999/xlink" xmlns:avocode="https://avocode.com/" viewBox="0 0 700 566"><defs></defs><desc>Generated with Avocode.</desc><g><g><title>“</title><path d="M172.30662,566c25.77236,0 49.70383,-6.21576 71.79443,-18.64729c22.09059,-12.43152 39.76306,-29.61628 53.01742,-51.55426c13.25435,-21.93798 19.88153,-46.4354 19.88153,-73.49225c0,-43.87597 -13.99071,-78.79393 -41.97213,-104.75387c-27.98141,-25.95995 -62.22183,-38.93993 -102.72125,-38.93993c-30.92683,0 -58.90825,9.8721 -83.94425,29.61628c-4.41812,-13.16279 -6.62718,-28.88501 -6.62718,-47.16666c0,-43.14471 16.93612,-85.74096 50.80836,-127.78876c33.87225,-42.04781 74.37166,-72.9438 121.49826,-92.68799l-20.98606,-40.58527c-78.05343,36.56331 -136.40941,84.64406 -175.06795,144.24225c-38.65853,59.59819 -57.9878,127.05749 -57.9878,202.37791c0,59.23255 12.88618,108.59302 38.65854,148.08139c30.92683,47.5323 75.47619,71.29845 133.64808,71.29845zM555.30662,566c40.49942,0 74.73984,-13.71124 102.72125,-41.13372c27.98142,-27.42248 41.97213,-61.60917 41.97213,-102.56008c0,-43.87597 -13.80662,-78.79393 -41.41986,-104.75387c-27.61324,-25.95995 -62.03775,-38.93993 -103.27352,-38.93993c-30.19048,0 -58.17189,9.8721 -83.94425,29.61628c-4.41812,-13.16279 -6.62718,-28.88501 -6.62718,-47.16666c0,-43.14471 16.93612,-85.74096 50.80836,-127.78876c33.87225,-42.04781 74.37166,-72.9438 121.49826,-92.68799l-20.98606,-40.58527c-78.05343,36.56331 -136.40941,84.64406 -175.06795,144.24225c-38.65853,59.59819 -57.9878,127.05749 -57.9878,202.37791c0,59.23255 12.88618,108.59302 38.65854,148.08139c30.92683,47.5323 75.47619,71.29845 133.64808,71.29845z" fill="#fbff00" fill-opacity="1"></path></g></g></svg>